<svg width="41" height="20" viewBox="0 0 41 20" fill="none" xmlns="http://www.w3.org/2000/svg">
<path d="M3.01697 6.17996C1.24557 3.45472 0.359863 2.0921 0.927539 1.04605C1.49522 0 3.12039 0 6.37074 0L27.5969 0C28.2917 0 28.639 0 28.9605 0.112743C29.2819 0.225487 29.5531 0.442499 30.0957 0.876525L37.5957 6.87652C39.3975 8.31801 40.2984 9.03875 40.2984 10C40.2984 10.9612 39.3975 11.682 37.5957 13.1235L30.0957 19.1235C29.5531 19.5575 29.2819 19.7745 28.9605 19.8873C28.639 20 28.2917 20 27.5969 20H6.37074C3.12039 20 1.49522 20 0.927539 18.954C0.359863 17.9079 1.24557 16.5453 3.01697 13.82L4.08303 12.18C4.77076 11.1219 5.11463 10.5929 5.11463 10C5.11463 9.40712 4.77076 8.8781 4.08303 7.82005L3.01697 6.17996Z" fill="#29A19C"/>
</svg>
