<svg width="35" height="35" viewBox="0 0 35 35" fill="none" xmlns="http://www.w3.org/2000/svg">
<g clip-path="url(#clip0_457_2)">
<path d="M17.5 3.55469C14.7419 3.55469 12.0457 4.37257 9.75241 5.9049C7.45911 7.43723 5.6717 9.61519 4.61622 12.1634C3.56073 14.7115 3.28457 17.5155 3.82265 20.2206C4.36073 22.9257 5.68889 25.4105 7.63918 27.3608C9.58947 29.3111 12.0743 30.6393 14.7794 31.1774C17.4845 31.7154 20.2885 31.4393 22.8366 30.3838C25.3848 29.3283 27.5628 27.5409 29.0951 25.2476C30.6274 22.9543 31.4453 20.2581 31.4453 17.5C31.4411 13.8028 29.9706 10.2581 27.3562 7.64378C24.7419 5.02943 21.1973 3.55886 17.5 3.55469ZM17.5 29.8047C15.0664 29.8047 12.6874 29.083 10.6639 27.731C8.64039 26.3789 7.06327 24.4572 6.13196 22.2088C5.20064 19.9604 4.95697 17.4864 5.43175 15.0995C5.90653 12.7126 7.07844 10.5201 8.79928 8.79927C10.5201 7.07843 12.7126 5.90652 15.0995 5.43174C17.4864 4.95696 19.9604 5.20064 22.2088 6.13195C24.4572 7.06326 26.3789 8.64039 27.731 10.6639C29.083 12.6874 29.8047 15.0664 29.8047 17.5C29.801 20.7623 28.5034 23.8899 26.1967 26.1966C23.8899 28.5034 20.7623 29.801 17.5 29.8047ZM23.8945 21.1915C23.2459 22.3133 22.3137 23.2447 21.1913 23.8923C20.0689 24.5398 18.7959 24.8807 17.5 24.8808C16.2042 24.8808 14.9312 24.5399 13.8088 23.8924C12.6864 23.2448 11.7541 22.3134 11.1055 21.1916C11.0515 21.0984 11.0165 20.9954 11.0023 20.8886C10.9882 20.7818 10.9952 20.6733 11.023 20.5692C11.0508 20.4652 11.0988 20.3676 11.1643 20.2821C11.2298 20.1965 11.3115 20.1248 11.4047 20.0708C11.498 20.0169 11.6009 19.9818 11.7077 19.9677C11.8145 19.9535 11.923 19.9605 12.0271 19.9883C12.1312 20.0161 12.2288 20.0641 12.3143 20.1296C12.3998 20.1951 12.4716 20.2769 12.5255 20.3701C13.1522 21.4526 14.1137 22.3022 15.2651 22.7908C16.3177 23.236 17.4792 23.3567 18.6008 23.1374C19.7225 22.9181 20.753 22.3687 21.5603 21.5598C21.9155 21.2047 22.2229 20.8047 22.4745 20.37C22.5284 20.2766 22.6001 20.1948 22.6856 20.1292C22.7712 20.0636 22.8688 20.0155 22.9729 19.9876C23.077 19.9598 23.1856 19.9527 23.2925 19.9668C23.3993 19.981 23.5024 20.016 23.5957 20.07C23.689 20.124 23.7707 20.1958 23.8362 20.2814C23.9018 20.367 23.9498 20.4646 23.9775 20.5688C24.0053 20.6729 24.0122 20.7816 23.998 20.8884C23.9838 20.9952 23.9486 21.0982 23.8945 21.1915ZM11.2109 14.7656C11.2109 14.4952 11.2911 14.2309 11.4414 14.0061C11.5916 13.7812 11.8051 13.606 12.0549 13.5025C12.3048 13.399 12.5796 13.372 12.8449 13.4247C13.1101 13.4775 13.3537 13.6077 13.5449 13.7989C13.7361 13.9901 13.8663 14.2337 13.919 14.4989C13.9718 14.7641 13.9447 15.039 13.8412 15.2888C13.7378 15.5386 13.5625 15.7522 13.3377 15.9024C13.1129 16.0526 12.8485 16.1328 12.5781 16.1328C12.2157 16.1324 11.8681 15.9882 11.6118 15.7319C11.3555 15.4756 11.2113 15.1281 11.2109 14.7656ZM21.0547 14.7656C21.0547 14.4952 21.1349 14.2309 21.2851 14.0061C21.4353 13.7812 21.6489 13.606 21.8987 13.5025C22.1485 13.399 22.4234 13.372 22.6886 13.4247C22.9538 13.4775 23.1974 13.6077 23.3886 13.7989C23.5798 13.9901 23.71 14.2337 23.7628 14.4989C23.8156 14.7641 23.7885 15.039 23.685 15.2888C23.5815 15.5386 23.4063 15.7522 23.1815 15.9024C22.9566 16.0526 22.6923 16.1328 22.4219 16.1328C22.0594 16.1324 21.7119 15.9882 21.4556 15.7319C21.1993 15.4756 21.0551 15.1281 21.0547 14.7656Z" fill="#282846"/>
<path d="M31.5 1V8" stroke="#282846"/>
<line x1="27.9999" y1="4.50128" x2="34.9999" y2="4.49979" stroke="#282846"/>
</g>
<defs>
<clipPath id="clip0_457_2">
<rect width="35" height="35" fill="white"/>
</clipPath>
</defs>
</svg>
