<svg width="35" height="35" viewBox="0 0 35 35" fill="none" xmlns="http://www.w3.org/2000/svg">
<path d="M2.15541 0.580001C1.51984 0.911411 0.884272 1.54661 0.55267 2.20943C0.0276335 3.2589 0 3.81125 0 15.6591C0 27.1756 0.0276335 28.1146 0.525036 28.9984C0.801371 29.5231 1.35404 30.2136 1.76854 30.5174C2.48701 31.0421 2.98442 31.0697 9.94806 31.1526L17.3538 31.2354L16.9946 30.0479L16.663 28.8603L10.1691 28.7222C5.22273 28.6118 3.56472 28.5013 3.23312 28.1975C2.81862 27.8661 2.76335 26.6233 2.76335 15.6315C2.76335 6.51776 2.84625 3.34175 3.09495 3.09319C3.59235 2.59608 29.0981 2.62369 29.5402 3.12081C29.7336 3.36937 29.8718 5.82732 29.8994 10.1909L29.9823 16.9019L31.3088 17.3991L32.6352 17.8962L32.5523 10.2737C32.4694 2.87225 32.4417 2.59608 31.8614 1.76755C30.5903 -0.0275839 30.7285 3.36058e-05 16.2485 3.36058e-05C3.78579 0.0276511 3.12259 0.0552686 2.15541 0.580001Z" fill="#282846"/>
<path d="M5.85834 7.23577C5.4162 7.67765 5.4162 9.99752 5.85834 10.4394C6.05177 10.6327 6.77024 10.7708 7.46108 10.7708C9.06382 10.7708 9.39542 10.4394 9.39542 8.83759C9.39542 7.23577 9.06382 6.90436 7.46108 6.90436C6.77024 6.90436 6.05177 7.04245 5.85834 7.23577Z" fill="#282846"/>
<path d="M12.5456 7.59484C12.0482 8.34051 12.1587 10.0528 12.7114 10.6051C12.9048 10.7985 15.2813 10.9089 19.7855 10.9089C25.5057 10.9089 26.5834 10.8537 26.8044 10.4947C27.1913 9.91471 27.136 7.62245 26.7492 7.23581C26.5005 6.98725 24.5661 6.9044 19.7026 6.9044H12.9877L12.5456 7.59484Z" fill="#282846"/>
<path d="M5.85834 14.1402C5.4162 14.5821 5.4162 16.9019 5.85834 17.3438C6.05177 17.5371 6.77024 17.6752 7.46108 17.6752C9.06382 17.6752 9.39542 17.3438 9.39542 15.742C9.39542 14.1402 9.06382 13.8088 7.46108 13.8088C6.77024 13.8088 6.05177 13.9469 5.85834 14.1402Z" fill="#282846"/>
<path d="M12.7667 14.0297C12.1587 14.4164 12.0206 16.1839 12.5456 16.9848L12.9878 17.6752H17.6302C21.4436 17.6752 22.5489 17.5648 23.9859 17.1229C24.9531 16.8191 26.0584 16.5705 26.4176 16.5705C26.9979 16.5705 27.0808 16.4324 27.0808 15.5211C27.0808 14.9411 26.9427 14.3335 26.7492 14.1402C26.3624 13.7535 13.3746 13.6707 12.7667 14.0297Z" fill="#282846"/>
<path d="M24.7873 19.7189C22.1898 20.6855 20.2554 22.7568 19.5922 25.27C18.9014 27.7832 19.9791 31.4011 21.9134 33.0305C25.865 36.3723 31.8062 35.3228 34.0722 30.9316C36.725 25.7119 33.409 19.7465 27.6888 19.4151C26.5282 19.3599 25.4505 19.4704 24.7873 19.7189ZM28.7389 24.4415V25.6843H29.9824H31.2259V27.2032V28.7222H29.9824H28.7389V29.965V31.2078H27.2191H25.6992V29.965V28.7222H24.4557H23.2122V27.2032V25.6843H24.4557H25.6992V24.4415V23.1987H27.2191H28.7389V24.4415Z" fill="#282846"/>
<path d="M5.96887 20.8788C5.69253 21.1274 5.52673 21.7902 5.52673 22.5083C5.52673 23.972 6.05177 24.5796 7.35054 24.5796C9.03619 24.5796 9.39542 24.2206 9.39542 22.5083C9.39542 21.3207 9.28489 20.9617 8.87039 20.7131C8.06902 20.2989 6.46627 20.3817 5.96887 20.8788Z" fill="#282846"/>
<path d="M12.7114 20.9893C11.9653 21.735 11.9653 23.2816 12.7114 24.0273C13.2088 24.5244 13.5681 24.5796 15.1155 24.5244L16.9394 24.4415L17.2986 23.3921C17.492 22.8121 17.9065 21.9836 18.2381 21.5693C18.5421 21.1274 18.7908 20.6855 18.7908 20.6027C18.7908 20.5198 17.5473 20.437 16.0275 20.437C13.6233 20.437 13.1812 20.5198 12.7114 20.9893Z" fill="#282846"/>
</svg>
