<svg width="24" height="24" viewBox="0 0 24 24" fill="none" xmlns="http://www.w3.org/2000/svg">
<path d="M11.9977 0C5.3823 0 0 5.38335 0 12C0 18.6166 5.3823 24 11.9977 24C15.0217 24 17.9097 22.8699 20.1321 20.8206C20.343 20.6237 20.3571 20.2954 20.1602 20.0844C19.9633 19.8734 19.6351 19.8593 19.4241 20.0563C17.394 21.9273 14.7591 22.959 11.9977 22.959C5.95429 22.959 1.04083 18.0445 1.04083 12C1.04083 5.95545 5.95429 1.03634 11.9977 1.03634C18.041 1.03634 22.9545 5.95545 22.9545 11.9953C22.9545 14.0445 22.3872 16.0422 21.3135 17.7726C21.1635 18.0164 21.2385 18.3353 21.4823 18.49C21.7261 18.6401 22.0449 18.5651 22.1996 18.3212C23.3764 16.4267 24 14.2368 24 11.9953C23.9953 5.38335 18.613 0 11.9977 0Z" fill="#29A19C"/>
<path d="M18.4877 8.76479L11.35 15.9559L7.49378 13.0229C7.24958 12.8378 6.89346 12.8768 6.70014 13.1106C6.50682 13.3445 6.54752 13.6855 6.79172 13.8707L11.055 17.1106C11.1567 17.1885 11.2839 17.2275 11.406 17.2275C11.5535 17.2275 11.7061 17.169 11.813 17.057L19.3067 9.50533C19.5204 9.29096 19.5102 8.94505 19.2864 8.74043C19.0574 8.54067 18.7013 8.55042 18.4877 8.76479Z" fill="#29A19C"/>
</svg>
