<svg width="1" height="1" viewBox="0 0 1 1" fill="none" xmlns="http://www.w3.org/2000/svg">
<path d="M0.937493 0.921845C0.937493 0.930471 0.930493 0.937468 0.921866 0.937468C0.91324 0.937468 0.90624 0.930471 0.90624 0.921845V0.406251H0.578156C0.573435 0.406251 0.569203 0.404136 0.566339 0.400847L0.509199 0.34375H0.031255V0.605339V0.96872H0.500018H0.968748V0.453126C0.968748 0.4445 0.975748 0.437501 0.984373 0.437501C0.993 0.437501 1 0.444533 1 0.453126V0.983953V0.984378C1 0.992971 0.993 0.999999 0.984373 0.999999H0.500018H0.0160507H0.0156275C0.00700002 0.999999 0 0.993002 0 0.984378V0.605339V0.328515V0.328125C0 0.319499 0.00700002 0.3125 0.0156275 0.3125H0.51558V0.312565C0.519552 0.312565 0.523521 0.314096 0.526552 0.317091L0.584536 0.375001H0.921443H0.921833C0.930459 0.375001 0.937457 0.382033 0.937457 0.390626V0.921845H0.937493Z" fill="black"/>
<path d="M0.062505 0.265593C0.062505 0.274219 0.055505 0.281218 0.0468775 0.281218C0.03825 0.281218 0.03125 0.274219 0.03125 0.265593V0.0156249C0.03125 0.00699888 0.03825 0 0.0468775 0H0.047268H0.640597C0.649224 0 0.656223 0.00699888 0.656223 0.0156249V0.0160154V0.328093C0.656223 0.336719 0.649224 0.343718 0.640597 0.343718C0.631969 0.343718 0.624971 0.336719 0.624971 0.328093V0.0312499H0.062505V0.265593Z" fill="black"/>
<path d="M0.171877 0.125059C0.16325 0.125059 0.15625 0.11806 0.15625 0.109434C0.15625 0.100808 0.16325 0.093811 0.171877 0.093811H0.515586C0.524214 0.093811 0.531214 0.100843 0.531214 0.109434C0.531214 0.11806 0.524214 0.125059 0.515586 0.125059H0.171877Z" fill="black"/>
<path d="M0.828127 0.125059C0.8195 0.125059 0.8125 0.11806 0.8125 0.109434C0.8125 0.100808 0.8195 0.093811 0.828127 0.093811H0.890637C0.899263 0.093811 0.906263 0.100843 0.906263 0.109434V0.109857V0.32812C0.906263 0.336746 0.899263 0.343745 0.890637 0.343745C0.88201 0.343745 0.875012 0.336746 0.875012 0.32812V0.125059H0.828127Z" fill="black"/>
<path d="M0.171877 0.250061C0.16325 0.250061 0.15625 0.243062 0.15625 0.234436C0.15625 0.22581 0.16325 0.218811 0.171877 0.218811H0.515586C0.524214 0.218811 0.531214 0.22581 0.531214 0.234436C0.531214 0.243062 0.524214 0.250061 0.515586 0.250061H0.171877Z" fill="black"/>
<path d="M0.703124 0.0938109C0.694498 0.0938109 0.6875 0.0868121 0.6875 0.078186C0.6875 0.0695599 0.694498 0.062561 0.703124 0.062561H0.7657C0.774298 0.062561 0.781327 0.0695599 0.781327 0.078186V0.0785764V0.328056C0.781327 0.336682 0.774327 0.343681 0.7657 0.343681C0.757075 0.343681 0.750075 0.336682 0.750075 0.328056V0.0938109H0.703124Z" fill="black"/>
</svg>
