<svg width="14" height="14" viewBox="0 0 14 14" fill="none" xmlns="http://www.w3.org/2000/svg">
<path d="M4.85109 0.146177C5.0464 0.341397 5.04647 0.657977 4.85126 0.853287L1.70619 3.99982H7.00002C9.93252 3.99982 12.5932 5.63968 13.9364 8.04252C14.0712 8.28362 13.985 8.58822 13.744 8.72292C13.5029 8.85772 13.1983 8.77152 13.0636 8.53052C11.894 6.43833 9.56412 4.99982 7.00002 4.99982H1.70727L4.85126 8.14522C5.04647 8.34052 5.0464 8.65712 4.85109 8.85232C4.65579 9.04762 4.3392 9.04752 4.14399 8.85222L0.160558 4.86693C0.0618277 4.77559 1.7643e-05 4.64492 1.7643e-05 4.49982C-5.2357e-05 4.37181 0.0487376 4.24349 0.146378 4.1458L4.14399 0.146347C4.3392 -0.0489631 4.65579 -0.0490331 4.85109 0.146177ZM9.00002 11.9998C9.00002 13.1044 8.10462 13.9998 7.00002 13.9998C5.89545 13.9998 5.00002 13.1044 5.00002 11.9998C5.00002 10.8952 5.89545 9.99982 7.00002 9.99982C8.10462 9.99982 9.00002 10.8952 9.00002 11.9998Z" fill="#282846"/>
<circle cx="7" cy="12" r="2" fill="#29A19C"/>
</svg>
