<svg width="64" height="35" viewBox="0 0 64 35" fill="none" xmlns="http://www.w3.org/2000/svg">
<path d="M59.807 1.717L31.491 29.791L3.41903 1.47501C2.64203 0.690005 1.37503 0.686005 0.591026 1.46301C-0.192974 2.24001 -0.197974 3.50701 0.579026 4.29001L29.773 33.738C30.138 34.106 30.608 34.301 31.085 34.327C31.224 34.335 31.363 34.326 31.5 34.306C31.554 34.314 31.606 34.327 31.66 34.328C32.204 34.357 32.759 34.166 33.175 33.752L62.622 4.556C63.407 3.779 63.412 2.513 62.634 1.728C61.856 0.943004 60.59 0.939005 59.807 1.717Z" fill="#29A19C"/>
</svg>
