<svg width="26" height="26" viewBox="0 0 26 26" fill="none" xmlns="http://www.w3.org/2000/svg">
<path d="M2.16663 11.9166V9.74998C2.16663 5.95831 4.33329 4.33331 7.58329 4.33331H18.4166C21.6666 4.33331 23.8333 5.95831 23.8333 9.74998V16.25C23.8333 20.0416 21.6666 21.6666 18.4166 21.6666H13" stroke="#29A19C" stroke-miterlimit="10" stroke-linecap="round" stroke-linejoin="round"/>
<path d="M13 15.7084C14.4957 15.7084 15.7083 14.4958 15.7083 13C15.7083 11.5043 14.4957 10.2917 13 10.2917C11.5042 10.2917 10.2916 11.5043 10.2916 13C10.2916 14.4958 11.5042 15.7084 13 15.7084Z" stroke="#29A19C" stroke-miterlimit="10" stroke-linecap="round" stroke-linejoin="round"/>
<path d="M20.0416 10.2917V15.7084" stroke="#29A19C" stroke-miterlimit="10" stroke-linecap="round" stroke-linejoin="round"/>
<path d="M2.16663 16.7917H7.95166C8.64499 16.7917 9.20829 17.355 9.20829 18.0484V19.435" stroke="#29A19C" stroke-miterlimit="10" stroke-linecap="round" stroke-linejoin="round"/>
<path d="M3.48826 15.47L2.16663 16.7916L3.48826 18.1133" stroke="#29A19C" stroke-miterlimit="10" stroke-linecap="round" stroke-linejoin="round"/>
<path d="M9.20829 22.5118H3.42326C2.72993 22.5118 2.16663 21.9485 2.16663 21.2551V19.8685" stroke="#29A19C" stroke-miterlimit="10" stroke-linecap="round" stroke-linejoin="round"/>
<path d="M7.88806 23.8336L9.2097 22.512L7.88806 21.1903" stroke="#29A19C" stroke-miterlimit="10" stroke-linecap="round" stroke-linejoin="round"/>
</svg>
