<svg width="12" height="12" viewBox="0 0 12 12" fill="none" xmlns="http://www.w3.org/2000/svg">
<path d="M11.6719 10.125L7.54688 6L11.6562 1.875C11.7187 1.8125 11.7187 1.71875 11.6562 1.65625L10.3281 0.328125C10.2656 0.265625 10.1719 0.265625 10.1094 0.328125L6 4.45312L1.89063 0.34375C1.82813 0.28125 1.73437 0.28125 1.67187 0.34375L0.34375 1.67187C0.28125 1.73437 0.28125 1.82813 0.34375 1.89063L4.4375 6L0.328125 10.1094C0.265625 10.1719 0.265625 10.2656 0.328125 10.3281L1.65625 11.6562C1.71875 11.7187 1.82812 11.7187 1.875 11.6562L6 7.54688L10.1094 11.6562C10.1719 11.7187 10.2813 11.7188 10.3438 11.6719L11.6719 10.3438C11.7344 10.2813 11.7344 10.1875 11.6719 10.125Z" fill="#FAFAFA"/>
</svg>
