<svg width="24" height="24" viewBox="0 0 24 24" fill="none" xmlns="http://www.w3.org/2000/svg">
<g clip-path="url(#clip0_426_18)">
<path d="M12 0C5.383 0 0 5.383 0 12C0 18.617 5.383 24 12 24C18.617 24 24 18.617 24 12C24 5.383 18.617 0 12 0ZM12 23C5.935 23 1 18.065 1 12C1 5.935 5.935 1 12 1C18.065 1 23 5.935 23 12C23 18.065 18.065 23 12 23Z" fill="#29A19C"/>
<path d="M17.766 5.26803C17.294 4.79503 16.522 4.79403 16.048 5.26803L6.92505 14.39L6.92405 14.391L6.92205 14.393C6.86405 14.451 6.82905 14.52 6.80505 14.593C6.80205 14.601 6.79505 14.606 6.79305 14.614L6.04005 17.345C5.99205 17.518 6.04205 17.704 6.16905 17.831C6.26405 17.926 6.39205 17.977 6.52305 17.977C6.56705 17.977 6.61205 17.971 6.65605 17.959L9.38605 17.206C9.39405 17.204 9.39905 17.196 9.40805 17.193C9.48205 17.169 9.55105 17.133 9.60705 17.077L18.732 7.95203C18.961 7.72303 19.087 7.41703 19.087 7.09303C19.087 6.76903 18.961 6.46403 18.732 6.23503L17.766 5.26803ZM7.23905 16.761L7.53005 15.707L7.91105 16.088L8.29205 16.47L7.23905 16.761ZM9.25405 16.017L8.61905 15.382L7.98405 14.747L15.919 6.81203L17.189 8.08303L9.25405 16.017ZM18.025 7.24503L17.895 7.37503L16.625 6.10403L16.755 5.97403C16.838 5.89103 16.974 5.89003 17.059 5.97403L18.026 6.94203C18.081 6.99603 18.089 7.06003 18.089 7.09303C18.088 7.12603 18.08 7.19003 18.025 7.24503Z" fill="#29A19C"/>
</g>
<defs>
<clipPath id="clip0_426_18">
<rect width="24" height="24" fill="white"/>
</clipPath>
</defs>
</svg>
