<svg width="25" height="25" viewBox="0 0 25 25" fill="none" xmlns="http://www.w3.org/2000/svg">
<path d="M14.4674 3.73094C15.8613 4.6081 17.8362 5.20669 20 5.20669C21.5063 5.20669 22.8839 4.70783 24 4.14672V16.4057C22.8603 17.0852 21.4713 17.75 20 17.75C18.1813 17.75 16.5817 17.2417 15.5326 16.5815L15.5325 16.5814C14.1386 15.7044 12.1638 15.1059 10 15.1059C8.49659 15.1059 7.12169 15.5736 6 16.118V3.84348C7.12293 3.18629 8.5192 2.5625 10 2.5625C11.8187 2.5625 13.4183 3.07079 14.4674 3.73094ZM14.4674 3.73094L15 2.88457L14.4674 3.73094ZM1.66667 1C2.09663 1 2.33333 1.31166 2.33333 1.5625V24H1V1.5625C1 1.31166 1.23671 1 1.66667 1Z" stroke="#282846" stroke-width="2"/>
</svg>
