<svg width="172" height="72" viewBox="0 0 172 72" fill="none" xmlns="http://www.w3.org/2000/svg">
<path d="M69.2015 29.8716C70.596 36.9696 69.6556 44.3284 66.5207 50.848C63.3859 57.367 58.2251 62.696 51.81 66.039C45.3949 69.381 38.0702 70.558 30.931 69.392C23.7919 68.226 17.2218 64.781 12.2033 59.571C7.1847 54.361 3.98733 47.667 3.08913 40.4895C2.19093 33.3118 3.6402 26.0361 7.2202 19.7504C10.8003 13.4647 16.3188 8.50666 22.9505 5.61756C29.5823 2.72856 36.971 2.06376 44.012 3.72256" stroke="url(#paint0_linear_424_3)" stroke-width="4" stroke-linecap="round"/>
<path d="M88.6719 24.0059C88.2172 24.0059 87.8652 23.8812 87.6159 23.6319C87.3812 23.3679 87.2639 23.0085 87.2639 22.5539V10.6739H82.9739C82.5926 10.6739 82.2919 10.5712 82.0719 10.3659C81.8666 10.1459 81.7639 9.85252 81.7639 9.48592C81.7639 9.10452 81.8666 8.81852 82.0719 8.62792C82.2919 8.42252 82.5926 8.31992 82.9739 8.31992H94.3699C94.7512 8.31992 95.0446 8.42252 95.2499 8.62792C95.4699 8.81852 95.5799 9.10452 95.5799 9.48592C95.5799 9.85252 95.4699 10.1459 95.2499 10.3659C95.0446 10.5712 94.7512 10.6739 94.3699 10.6739H90.0799V22.5539C90.0799 23.0085 89.9626 23.3679 89.7279 23.6319C89.4932 23.8812 89.1412 24.0059 88.6719 24.0059ZM98.747 24.0499C97.97 24.0499 97.273 23.9032 96.6572 23.6099C96.0559 23.3019 95.5792 22.8912 95.2272 22.3779C94.8899 21.8645 94.7212 21.2852 94.7212 20.6399C94.7212 19.8479 94.9265 19.2245 95.3372 18.7699C95.7479 18.3005 96.4152 17.9632 97.339 17.7579C98.263 17.5525 99.503 17.4499 101.057 17.4499H102.157V19.0339H101.079C100.17 19.0339 99.444 19.0779 98.901 19.1659C98.359 19.2539 97.97 19.4079 97.735 19.6279C97.515 19.8332 97.405 20.1265 97.405 20.5079C97.405 20.9919 97.574 21.3879 97.911 21.6959C98.249 22.0039 98.718 22.1579 99.319 22.1579C99.803 22.1579 100.229 22.0479 100.595 21.8279C100.977 21.5932 101.277 21.2779 101.497 20.8819C101.717 20.4859 101.827 20.0312 101.827 19.5179V16.9879C101.827 16.2545 101.666 15.7265 101.343 15.4039C101.021 15.0812 100.478 14.9199 99.715 14.9199C99.29 14.9199 98.828 14.9712 98.329 15.0739C97.845 15.1765 97.332 15.3525 96.7892 15.6019C96.5105 15.7339 96.2612 15.7705 96.0412 15.7119C95.8359 15.6532 95.6745 15.5359 95.5572 15.3599C95.4399 15.1692 95.3812 14.9639 95.3812 14.7439C95.3812 14.5239 95.4399 14.3112 95.5572 14.1059C95.6745 13.8859 95.8725 13.7245 96.1512 13.6219C96.8259 13.3432 97.471 13.1452 98.087 13.0279C98.718 12.9105 99.29 12.8519 99.803 12.8519C100.859 12.8519 101.725 13.0132 102.399 13.3359C103.089 13.6585 103.602 14.1499 103.939 14.8099C104.277 15.4552 104.445 16.2912 104.445 17.3179V22.5979C104.445 23.0525 104.335 23.4045 104.115 23.6539C103.895 23.8885 103.58 24.0059 103.169 24.0059C102.759 24.0059 102.436 23.8885 102.201 23.6539C101.981 23.4045 101.871 23.0525 101.871 22.5979V21.5419H102.047C101.945 22.0552 101.739 22.5025 101.431 22.8839C101.138 23.2505 100.764 23.5365 100.309 23.7419C99.855 23.9472 99.334 24.0499 98.747 24.0499ZM111.174 24.0499C110.544 24.0499 109.876 23.9839 109.172 23.8519C108.468 23.7199 107.838 23.4925 107.28 23.1699C107.046 23.0232 106.877 22.8545 106.774 22.6639C106.686 22.4585 106.65 22.2605 106.664 22.0699C106.694 21.8645 106.767 21.6885 106.884 21.5419C107.016 21.3952 107.178 21.2999 107.368 21.2559C107.574 21.2119 107.794 21.2485 108.028 21.3659C108.615 21.6445 109.165 21.8425 109.678 21.9599C110.192 22.0625 110.698 22.1139 111.196 22.1139C111.9 22.1139 112.421 21.9965 112.758 21.7619C113.11 21.5125 113.286 21.1899 113.286 20.7939C113.286 20.4565 113.169 20.1999 112.934 20.0239C112.714 19.8332 112.377 19.6939 111.922 19.6059L109.722 19.1879C108.813 19.0119 108.116 18.6819 107.632 18.1979C107.163 17.6992 106.928 17.0612 106.928 16.2839C106.928 15.5799 107.119 14.9712 107.5 14.4579C107.896 13.9445 108.439 13.5485 109.128 13.2699C109.818 12.9912 110.61 12.8519 111.504 12.8519C112.15 12.8519 112.751 12.9252 113.308 13.0719C113.88 13.2039 114.43 13.4165 114.958 13.7099C115.178 13.8272 115.325 13.9812 115.398 14.1719C115.486 14.3625 115.508 14.5605 115.464 14.7659C115.42 14.9565 115.332 15.1325 115.2 15.2939C115.068 15.4405 114.9 15.5359 114.694 15.5799C114.504 15.6092 114.284 15.5652 114.034 15.4479C113.58 15.2132 113.14 15.0445 112.714 14.9419C112.304 14.8392 111.908 14.7879 111.526 14.7879C110.808 14.7879 110.272 14.9125 109.92 15.1619C109.583 15.4112 109.414 15.7412 109.414 16.1519C109.414 16.4599 109.517 16.7165 109.722 16.9219C109.928 17.1272 110.243 17.2665 110.668 17.3399L112.868 17.7579C113.822 17.9339 114.54 18.2565 115.024 18.7259C115.523 19.1952 115.772 19.8259 115.772 20.6179C115.772 21.6885 115.354 22.5319 114.518 23.1479C113.682 23.7492 112.568 24.0499 111.174 24.0499ZM119.343 24.0059C118.903 24.0059 118.565 23.8885 118.331 23.6539C118.096 23.4045 117.979 23.0525 117.979 22.5979V9.52992C117.979 9.07522 118.096 8.73052 118.331 8.49592C118.565 8.26122 118.903 8.14392 119.343 8.14392C119.783 8.14392 120.12 8.26122 120.355 8.49592C120.604 8.73052 120.729 9.07522 120.729 9.52992V17.6479H120.773L124.403 13.8199C124.696 13.5265 124.953 13.2992 125.173 13.1379C125.393 12.9765 125.693 12.8959 126.075 12.8959C126.456 12.8959 126.742 12.9985 126.933 13.2039C127.138 13.3945 127.241 13.6292 127.241 13.9079C127.241 14.1865 127.109 14.4652 126.845 14.7439L123.017 18.7919V17.6479L127.219 22.1799C127.483 22.4585 127.6 22.7445 127.571 23.0379C127.556 23.3165 127.439 23.5512 127.219 23.7419C126.999 23.9179 126.72 24.0059 126.383 24.0059C125.972 24.0059 125.642 23.9252 125.393 23.7639C125.158 23.6025 124.894 23.3605 124.601 23.0379L120.773 19.0339H120.729V22.5979C120.729 23.5365 120.267 24.0059 119.343 24.0059Z" fill="url(#paint1_linear_424_3)"/>
<path d="M85.0199 44.8298C84.5359 44.8298 84.1619 44.7051 83.8979 44.4558C83.6486 44.1918 83.5239 43.8178 83.5239 43.3338V30.8158C83.5239 30.3318 83.6486 29.9651 83.8979 29.7158C84.1619 29.4518 84.5359 29.3198 85.0199 29.3198H92.8739C93.2406 29.3198 93.5192 29.4151 93.7099 29.6058C93.9152 29.7964 94.0179 30.0678 94.0179 30.4198C94.0179 30.7864 93.9152 31.0724 93.7099 31.2778C93.5192 31.4684 93.2406 31.5638 92.8739 31.5638H86.2299V35.8318H92.3899C92.7712 35.8318 93.0572 35.9271 93.2479 36.1178C93.4386 36.3084 93.5339 36.5871 93.5339 36.9538C93.5339 37.3204 93.4386 37.5991 93.2479 37.7898C93.0572 37.9804 92.7712 38.0758 92.3899 38.0758H86.2299V42.5858H92.8739C93.2406 42.5858 93.5192 42.6811 93.7099 42.8718C93.9152 43.0624 94.0179 43.3411 94.0179 43.7078C94.0179 44.0744 93.9152 44.3531 93.7099 44.5438C93.5192 44.7344 93.2406 44.8298 92.8739 44.8298H85.0199ZM100.571 45.0058C100.204 45.0058 99.882 44.9104 99.603 44.7198C99.339 44.5291 99.119 44.2358 98.943 43.8398L95.445 35.7218C95.313 35.3991 95.2616 35.0984 95.291 34.8198C95.335 34.5411 95.467 34.3211 95.687 34.1598C95.9216 33.9838 96.237 33.8958 96.633 33.8958C96.9703 33.8958 97.242 33.9764 97.447 34.1378C97.652 34.2844 97.836 34.5704 97.997 34.9958L100.967 42.4098H100.307L103.365 34.9738C103.526 34.5631 103.71 34.2844 103.915 34.1378C104.135 33.9764 104.428 33.8958 104.795 33.8958C105.118 33.8958 105.374 33.9838 105.565 34.1598C105.756 34.3211 105.873 34.5411 105.917 34.8198C105.961 35.0838 105.91 35.3771 105.763 35.6998L102.199 43.8398C102.038 44.2358 101.818 44.5291 101.539 44.7198C101.275 44.9104 100.952 45.0058 100.571 45.0058ZM112.904 45.0498C111.686 45.0498 110.638 44.8224 109.758 44.3678C108.878 43.9131 108.196 43.2678 107.712 42.4318C107.242 41.5958 107.008 40.6058 107.008 39.4618C107.008 38.3471 107.235 37.3718 107.69 36.5358C108.159 35.6998 108.797 35.0471 109.604 34.5778C110.425 34.0938 111.356 33.8518 112.398 33.8518C113.16 33.8518 113.842 33.9764 114.444 34.2258C115.06 34.4751 115.58 34.8344 116.006 35.3038C116.446 35.7731 116.776 36.3451 116.996 37.0198C117.23 37.6798 117.348 38.4278 117.348 39.2638C117.348 39.5278 117.252 39.7331 117.062 39.8798C116.886 40.0118 116.629 40.0778 116.292 40.0778H109.23V38.4938H115.412L115.06 38.8238C115.06 38.1491 114.957 37.5844 114.752 37.1298C114.561 36.6751 114.275 36.3304 113.894 36.0958C113.527 35.8464 113.065 35.7218 112.508 35.7218C111.892 35.7218 111.364 35.8684 110.924 36.1618C110.498 36.4404 110.168 36.8438 109.934 37.3718C109.714 37.8851 109.604 38.5011 109.604 39.2198V39.3738C109.604 40.5764 109.882 41.4784 110.44 42.0798C111.012 42.6664 111.848 42.9598 112.948 42.9598C113.329 42.9598 113.754 42.9158 114.224 42.8278C114.708 42.7251 115.162 42.5564 115.588 42.3218C115.896 42.1458 116.167 42.0724 116.402 42.1018C116.636 42.1164 116.82 42.1971 116.952 42.3438C117.098 42.4904 117.186 42.6738 117.216 42.8938C117.245 43.0991 117.201 43.3118 117.084 43.5318C116.981 43.7518 116.798 43.9424 116.534 44.1038C116.02 44.4264 115.426 44.6684 114.752 44.8298C114.092 44.9764 113.476 45.0498 112.904 45.0498ZM120.89 45.0058C120.45 45.0058 120.112 44.8884 119.878 44.6538C119.643 44.4044 119.526 44.0524 119.526 43.5978V35.2818C119.526 34.8271 119.643 34.4824 119.878 34.2478C120.112 34.0131 120.442 33.8958 120.868 33.8958C121.293 33.8958 121.623 34.0131 121.858 34.2478C122.092 34.4824 122.21 34.8271 122.21 35.2818V36.7778L121.968 36.2278C122.29 35.4504 122.789 34.8638 123.464 34.4678C124.153 34.0571 124.93 33.8518 125.796 33.8518C126.661 33.8518 127.372 34.0131 127.93 34.3358C128.487 34.6584 128.905 35.1498 129.184 35.8098C129.462 36.4551 129.602 37.2764 129.602 38.2738V43.5978C129.602 44.0524 129.484 44.4044 129.25 44.6538C129.015 44.8884 128.678 45.0058 128.238 45.0058C127.798 45.0058 127.453 44.8884 127.204 44.6538C126.969 44.4044 126.852 44.0524 126.852 43.5978V38.4058C126.852 37.5698 126.69 36.9611 126.368 36.5798C126.06 36.1984 125.576 36.0078 124.916 36.0078C124.109 36.0078 123.464 36.2644 122.98 36.7778C122.51 37.2764 122.276 37.9438 122.276 38.7798V43.5978C122.276 44.5364 121.814 45.0058 120.89 45.0058ZM137.323 45.0498C136.369 45.0498 135.57 44.8884 134.925 44.5658C134.294 44.2431 133.825 43.7738 133.517 43.1578C133.209 42.5271 133.055 41.7498 133.055 40.8258V36.1398H131.911C131.559 36.1398 131.287 36.0518 131.097 35.8758C130.906 35.6851 130.811 35.4284 130.811 35.1058C130.811 34.7684 130.906 34.5118 131.097 34.3358C131.287 34.1598 131.559 34.0718 131.911 34.0718H133.055V32.0698C133.055 31.6151 133.172 31.2704 133.407 31.0358C133.656 30.8011 134.001 30.6838 134.441 30.6838C134.881 30.6838 135.218 30.8011 135.453 31.0358C135.687 31.2704 135.805 31.6151 135.805 32.0698V34.0718H138.137C138.489 34.0718 138.76 34.1598 138.951 34.3358C139.141 34.5118 139.237 34.7684 139.237 35.1058C139.237 35.4284 139.141 35.6851 138.951 35.8758C138.76 36.0518 138.489 36.1398 138.137 36.1398H135.805V40.6718C135.805 41.3758 135.959 41.9038 136.267 42.2558C136.575 42.6078 137.073 42.7838 137.763 42.7838C138.012 42.7838 138.232 42.7618 138.423 42.7178C138.613 42.6738 138.782 42.6444 138.929 42.6298C139.105 42.6151 139.251 42.6738 139.369 42.8058C139.486 42.9231 139.545 43.1724 139.545 43.5538C139.545 43.8471 139.493 44.1111 139.391 44.3458C139.303 44.5658 139.134 44.7198 138.885 44.8078C138.694 44.8664 138.445 44.9178 138.137 44.9618C137.829 45.0204 137.557 45.0498 137.323 45.0498Z" fill="url(#paint2_linear_424_3)"/>
<path d="M84.8439 66.0059C84.4332 66.0059 84.1179 65.8889 83.8979 65.6539C83.6779 65.4189 83.5679 65.0969 83.5679 64.6859V51.4639C83.5679 51.0389 83.6852 50.7159 83.9199 50.4959C84.1546 50.2609 84.4772 50.1439 84.8879 50.1439C85.2546 50.1439 85.5406 50.2169 85.7459 50.3639C85.9659 50.4959 86.1639 50.7309 86.3399 51.0679L91.7739 61.1219H91.0699L96.5039 51.0679C96.6799 50.7309 96.8706 50.4959 97.076 50.3639C97.281 50.2169 97.567 50.1439 97.934 50.1439C98.345 50.1439 98.66 50.2609 98.88 50.4959C99.1 50.7159 99.21 51.0389 99.21 51.4639V64.6859C99.21 65.0969 99.1 65.4189 98.88 65.6539C98.675 65.8889 98.359 66.0059 97.934 66.0059C97.523 66.0059 97.208 65.8889 96.9879 65.6539C96.7679 65.4189 96.6579 65.0969 96.6579 64.6859V54.4999H97.142L92.5219 62.9259C92.3752 63.1749 92.2212 63.3589 92.0599 63.4759C91.8986 63.5929 91.6786 63.6519 91.3999 63.6519C91.1212 63.6519 90.8939 63.5929 90.7179 63.4759C90.5419 63.3439 90.3879 63.1609 90.2559 62.9259L85.5919 54.4779H86.1199V64.6859C86.1199 65.0969 86.0099 65.4189 85.7899 65.6539C85.5846 65.8889 85.2692 66.0059 84.8439 66.0059ZM105.902 66.0499C105.124 66.0499 104.428 65.9029 103.812 65.6099C103.21 65.3019 102.734 64.8909 102.382 64.3779C102.044 63.8649 101.876 63.2849 101.876 62.6399C101.876 61.8479 102.081 61.2249 102.492 60.7699C102.902 60.3009 103.57 59.9629 104.494 59.7579C105.418 59.5529 106.657 59.4499 108.212 59.4499H109.312V61.0339H108.234C107.324 61.0339 106.598 61.0779 106.056 61.1659C105.513 61.2539 105.124 61.4079 104.89 61.6279C104.67 61.8329 104.56 62.1269 104.56 62.5079C104.56 62.9919 104.728 63.3879 105.066 63.6959C105.403 64.0039 105.872 64.1579 106.474 64.1579C106.958 64.1579 107.383 64.0479 107.75 63.8279C108.131 63.5929 108.432 63.2779 108.652 62.8819C108.872 62.4859 108.982 62.0309 108.982 61.5179V58.9879C108.982 58.2549 108.82 57.7269 108.498 57.4039C108.175 57.0809 107.632 56.9199 106.87 56.9199C106.444 56.9199 105.982 56.9709 105.484 57.0739C105 57.1769 104.486 57.3529 103.944 57.6019C103.665 57.7339 103.416 57.7709 103.196 57.7119C102.99 57.6529 102.829 57.5359 102.712 57.3599C102.594 57.1689 102.536 56.9639 102.536 56.7439C102.536 56.5239 102.594 56.3109 102.712 56.1059C102.829 55.8859 103.027 55.7249 103.306 55.6219C103.98 55.3429 104.626 55.1449 105.242 55.0279C105.872 54.9109 106.444 54.8519 106.958 54.8519C108.014 54.8519 108.879 55.0129 109.554 55.3359C110.243 55.6589 110.756 56.1499 111.094 56.8099C111.431 57.4549 111.6 58.2909 111.6 59.3179V64.5979C111.6 65.0529 111.49 65.4049 111.27 65.6539C111.05 65.8889 110.734 66.0059 110.324 66.0059C109.913 66.0059 109.59 65.8889 109.356 65.6539C109.136 65.4049 109.026 65.0529 109.026 64.5979V63.5419H109.202C109.099 64.0549 108.894 64.5029 108.586 64.8839C108.292 65.2509 107.918 65.5369 107.464 65.7419C107.009 65.9469 106.488 66.0499 105.902 66.0499ZM115.755 66.0059C115.315 66.0059 114.977 65.8889 114.743 65.6539C114.508 65.4049 114.391 65.0529 114.391 64.5979V56.2819C114.391 55.8269 114.508 55.4829 114.743 55.2479C114.977 55.0129 115.307 54.8959 115.733 54.8959C116.158 54.8959 116.488 55.0129 116.723 55.2479C116.957 55.4829 117.075 55.8269 117.075 56.2819V57.7779L116.833 57.2279C117.155 56.4509 117.654 55.8639 118.329 55.4679C119.018 55.0569 119.795 54.8519 120.661 54.8519C121.526 54.8519 122.237 55.0129 122.795 55.3359C123.352 55.6589 123.77 56.1499 124.049 56.8099C124.327 57.4549 124.467 58.2769 124.467 59.2739V64.5979C124.467 65.0529 124.349 65.4049 124.115 65.6539C123.88 65.8889 123.543 66.0059 123.103 66.0059C122.663 66.0059 122.318 65.8889 122.069 65.6539C121.834 65.4049 121.717 65.0529 121.717 64.5979V59.4059C121.717 58.5699 121.555 57.9609 121.233 57.5799C120.925 57.1989 120.441 57.0079 119.781 57.0079C118.974 57.0079 118.329 57.2649 117.845 57.7779C117.375 58.2769 117.141 58.9439 117.141 59.7799V64.5979C117.141 65.5369 116.679 66.0059 115.755 66.0059ZM130.802 66.0499C130.025 66.0499 129.328 65.9029 128.712 65.6099C128.111 65.3019 127.634 64.8909 127.282 64.3779C126.945 63.8649 126.776 63.2849 126.776 62.6399C126.776 61.8479 126.981 61.2249 127.392 60.7699C127.803 60.3009 128.47 59.9629 129.394 59.7579C130.318 59.5529 131.557 59.4499 133.112 59.4499H134.212V61.0339H133.134C132.225 61.0339 131.499 61.0779 130.956 61.1659C130.413 61.2539 130.025 61.4079 129.79 61.6279C129.57 61.8329 129.46 62.1269 129.46 62.5079C129.46 62.9919 129.629 63.3879 129.966 63.6959C130.303 64.0039 130.773 64.1579 131.374 64.1579C131.858 64.1579 132.283 64.0479 132.65 63.8279C133.031 63.5929 133.332 63.2779 133.552 62.8819C133.772 62.4859 133.882 62.0309 133.882 61.5179V58.9879C133.882 58.2549 133.721 57.7269 133.398 57.4039C133.075 57.0809 132.533 56.9199 131.77 56.9199C131.345 56.9199 130.883 56.9709 130.384 57.0739C129.9 57.1769 129.387 57.3529 128.844 57.6019C128.565 57.7339 128.316 57.7709 128.096 57.7119C127.891 57.6529 127.729 57.5359 127.612 57.3599C127.495 57.1689 127.436 56.9639 127.436 56.7439C127.436 56.5239 127.495 56.3109 127.612 56.1059C127.729 55.8859 127.927 55.7249 128.206 55.6219C128.881 55.3429 129.526 55.1449 130.142 55.0279C130.773 54.9109 131.345 54.8519 131.858 54.8519C132.914 54.8519 133.779 55.0129 134.454 55.3359C135.143 55.6589 135.657 56.1499 135.994 56.8099C136.331 57.4549 136.5 58.2909 136.5 59.3179V64.5979C136.5 65.0529 136.39 65.4049 136.17 65.6539C135.95 65.8889 135.635 66.0059 135.224 66.0059C134.813 66.0059 134.491 65.8889 134.256 65.6539C134.036 65.4049 133.926 65.0529 133.926 64.5979V63.5419H134.102C133.999 64.0549 133.794 64.5029 133.486 64.8839C133.193 65.2509 132.819 65.5369 132.364 65.7419C131.909 65.9469 131.389 66.0499 130.802 66.0499ZM144.307 70.0099C143.515 70.0099 142.745 69.9369 141.997 69.7899C141.264 69.6429 140.596 69.4159 139.995 69.1079C139.716 68.9609 139.526 68.7849 139.423 68.5799C139.335 68.3749 139.306 68.1619 139.335 67.9419C139.379 67.7369 139.467 67.5529 139.599 67.3919C139.746 67.2309 139.922 67.1209 140.127 67.0619C140.332 67.0029 140.545 67.0329 140.765 67.1499C141.41 67.4729 142.019 67.6779 142.591 67.7659C143.178 67.8689 143.676 67.9199 144.087 67.9199C145.07 67.9199 145.803 67.6779 146.287 67.1939C146.786 66.7249 147.035 66.0209 147.035 65.0819V63.1019H147.233C147.013 63.8499 146.551 64.4509 145.847 64.9059C145.158 65.3459 144.373 65.5659 143.493 65.5659C142.525 65.5659 141.682 65.3459 140.963 64.9059C140.244 64.4509 139.687 63.8209 139.291 63.0139C138.895 62.2069 138.697 61.2689 138.697 60.1979C138.697 59.3909 138.807 58.6649 139.027 58.0199C139.262 57.3599 139.584 56.7949 139.995 56.3259C140.42 55.8569 140.926 55.4969 141.513 55.2479C142.114 54.9839 142.774 54.8519 143.493 54.8519C144.402 54.8519 145.194 55.0789 145.869 55.5339C146.558 55.9739 147.006 56.5609 147.211 57.2939L146.991 57.8439V56.2819C146.991 55.8269 147.108 55.4829 147.343 55.2479C147.592 55.0129 147.93 54.8959 148.355 54.8959C148.795 54.8959 149.132 55.0129 149.367 55.2479C149.602 55.4829 149.719 55.8269 149.719 56.2819V64.7519C149.719 66.4969 149.257 67.8099 148.333 68.6899C147.409 69.5699 146.067 70.0099 144.307 70.0099ZM144.241 63.4759C144.813 63.4759 145.304 63.3439 145.715 63.0799C146.126 62.8159 146.441 62.4419 146.661 61.9579C146.896 61.4589 147.013 60.8729 147.013 60.1979C147.013 59.1859 146.764 58.3939 146.265 57.8219C145.766 57.2349 145.092 56.9419 144.241 56.9419C143.669 56.9419 143.178 57.0739 142.767 57.3379C142.356 57.6019 142.034 57.9759 141.799 58.4599C141.579 58.9439 141.469 59.5229 141.469 60.1979C141.469 61.2099 141.718 62.0089 142.217 62.5959C142.716 63.1829 143.39 63.4759 144.241 63.4759ZM157.87 66.0499C156.653 66.0499 155.604 65.8229 154.724 65.3679C153.844 64.9129 153.162 64.2679 152.678 63.4319C152.209 62.5959 151.974 61.6059 151.974 60.4619C151.974 59.3469 152.202 58.3719 152.656 57.5359C153.126 56.6999 153.764 56.0469 154.57 55.5779C155.392 55.0939 156.323 54.8519 157.364 54.8519C158.127 54.8519 158.809 54.9769 159.41 55.2259C160.026 55.4749 160.547 55.8349 160.972 56.3039C161.412 56.7729 161.742 57.3449 161.962 58.0199C162.197 58.6799 162.314 59.4279 162.314 60.2639C162.314 60.5279 162.219 60.7329 162.028 60.8799C161.852 61.0119 161.596 61.0779 161.258 61.0779H154.196V59.4939H160.378L160.026 59.8239C160.026 59.1489 159.924 58.5849 159.718 58.1299C159.528 57.6749 159.242 57.3309 158.86 57.0959C158.494 56.8469 158.032 56.7219 157.474 56.7219C156.858 56.7219 156.33 56.8689 155.89 57.1619C155.465 57.4409 155.135 57.8439 154.9 58.3719C154.68 58.8849 154.57 59.5009 154.57 60.2199V60.3739C154.57 61.5769 154.849 62.4789 155.406 63.0799C155.978 63.6669 156.814 63.9599 157.914 63.9599C158.296 63.9599 158.721 63.9159 159.19 63.8279C159.674 63.7249 160.129 63.5569 160.554 63.3219C160.862 63.1459 161.134 63.0729 161.368 63.1019C161.603 63.1169 161.786 63.1969 161.918 63.3439C162.065 63.4909 162.153 63.6739 162.182 63.8939C162.212 64.0989 162.168 64.3119 162.05 64.5319C161.948 64.7519 161.764 64.9429 161.5 65.1039C160.987 65.4269 160.393 65.6689 159.718 65.8299C159.058 65.9769 158.442 66.0499 157.87 66.0499ZM165.9 66.0059C165.446 66.0059 165.094 65.8889 164.844 65.6539C164.61 65.4049 164.492 65.0529 164.492 64.5979V56.2819C164.492 55.8269 164.61 55.4829 164.844 55.2479C165.079 55.0129 165.409 54.8959 165.834 54.8959C166.26 54.8959 166.59 55.0129 166.824 55.2479C167.059 55.4829 167.176 55.8269 167.176 56.2819V57.6679H166.956C167.162 56.7879 167.565 56.1209 168.166 55.6659C168.768 55.2109 169.567 54.9399 170.564 54.8519C170.872 54.8229 171.114 54.9029 171.29 55.0939C171.481 55.2699 171.591 55.5489 171.62 55.9299C171.65 56.2969 171.562 56.5969 171.356 56.8319C171.166 57.0519 170.872 57.1839 170.476 57.2279L169.992 57.2719C169.098 57.3599 168.423 57.6389 167.968 58.1079C167.514 58.5629 167.286 59.2079 167.286 60.0439V64.5979C167.286 65.0529 167.169 65.4049 166.934 65.6539C166.7 65.8889 166.355 66.0059 165.9 66.0059Z" fill="url(#paint3_linear_424_3)"/>
<path d="M21.5652 36.3005L34.7024 49.438L57.6926 15.2809" stroke="url(#paint4_linear_424_3)" stroke-width="4" stroke-linecap="round"/>
<defs>
<linearGradient id="paint0_linear_424_3" x1="29.8716" y1="3.45826" x2="42.7882" y2="69.201" gradientUnits="userSpaceOnUse">
<stop stop-color="#29A19C"/>
<stop offset="1" stop-color="#56BBB7"/>
</linearGradient>
<linearGradient id="paint1_linear_424_3" x1="85.687" y1="12.8299" x2="135.765" y2="10.4526" gradientUnits="userSpaceOnUse">
<stop stop-color="#2AA19D"/>
<stop offset="0.441984" stop-color="#56BBB7"/>
<stop offset="1" stop-color="#2AA19D"/>
</linearGradient>
<linearGradient id="paint2_linear_424_3" x1="84.8753" y1="33.8298" x2="144.262" y2="33.8298" gradientUnits="userSpaceOnUse">
<stop stop-color="#2AA19D"/>
<stop offset="0.48949" stop-color="#56BBB7"/>
<stop offset="1" stop-color="#2AA19D"/>
</linearGradient>
<linearGradient id="paint3_linear_424_3" x1="84.8299" y1="54.8299" x2="189.08" y2="54.8299" gradientUnits="userSpaceOnUse">
<stop stop-color="#2AA19D"/>
<stop offset="0.485054" stop-color="#56BBB7"/>
<stop offset="1" stop-color="#2AA19D"/>
</linearGradient>
<linearGradient id="paint4_linear_424_3" x1="39.6289" y1="15.2809" x2="39.6289" y2="49.438" gradientUnits="userSpaceOnUse">
<stop stop-color="#29A19C"/>
<stop offset="1" stop-color="#56BBB7"/>
</linearGradient>
</defs>
</svg>
