<svg width="78" height="86" viewBox="0 0 78 86" fill="none" xmlns="http://www.w3.org/2000/svg">
<path d="M38 44.0186C38 42.8423 38 42.2542 37.7122 41.7774C37.4243 41.3006 36.9039 41.0267 35.863 40.4789L5.86299 24.6894C3.24275 23.3103 1.93263 22.6208 0.966314 23.2042C0 23.7876 0 25.2681 0 28.2291V65C1.63987e-05 65.1822 0.049783 65.3609 0.143928 65.5168C0.238072 65.6727 0.373019 65.8 0.5342 65.8848L32.137 82.5179C34.7573 83.8969 36.0674 84.5865 37.0337 84.0031C38 83.4197 38 81.9392 38 78.9782V44.0186Z" fill="black"/>
<path d="M38.0685 39.3798C38.5248 39.6199 38.7529 39.74 39 39.74C39.2471 39.74 39.4752 39.6199 39.9315 39.3798L73.6373 21.6399C75.1144 20.8625 75.8529 20.4738 75.8529 19.87C75.8529 19.2663 75.1144 18.8776 73.6373 18.1002L39.4658 0.115224C39.3222 0.0397043 39.1623 0.000244141 39 0.000244141C38.8377 0.000244141 38.6778 0.0397043 38.5342 0.115224L4.3627 18.1002C2.88563 18.8776 2.14709 19.2663 2.14709 19.87C2.14709 20.4738 2.88563 20.8625 4.36269 21.6399L38.0685 39.3798Z" fill="black"/>
<path d="M42.137 40.4789C41.0961 41.0267 40.5757 41.3006 40.2878 41.7774C40 42.2541 40 42.8423 40 44.0185V78.9782C40 81.9391 40 83.4196 40.9663 84.003C41.9326 84.5864 43.2427 83.8969 45.863 82.5178L77.4658 65.8848C77.6269 65.7999 77.7618 65.6726 77.856 65.5167C77.9501 65.3608 77.9999 65.1821 78 65V28.2291C78 25.2682 78 23.7877 77.0337 23.2043C76.0674 22.6209 74.7573 23.3104 72.137 24.6895L42.137 40.4789Z" fill="black"/>
</svg>
