<svg width="15" height="15" viewBox="0 0 15 15" fill="none" xmlns="http://www.w3.org/2000/svg">
<g clip-path="url(#clip0_404_21)">
<path d="M7.5 0C3.364 0 0 3.364 0 7.5C0 11.636 3.364 15 7.5 15C11.636 15 15 11.636 15 7.5C15 3.364 11.636 0 7.5 0ZM7.5 14C3.916 14 1 11.084 1 7.5C1 3.916 3.916 1 7.5 1C11.084 1 14 3.916 14 7.5C14 11.084 11.084 14 7.5 14Z" fill="white"/>
<path d="M8 3.5H7V7H3.5V8H7V11.5H8V8H11.5V7H8V3.5Z" fill="white"/>
</g>
<defs>
<clipPath id="clip0_404_21">
<rect width="15" height="15" fill="white"/>
</clipPath>
</defs>
</svg>
