<svg width="20" height="20" viewBox="0 0 20 20" fill="none" xmlns="http://www.w3.org/2000/svg">
<path d="M10 20C8.02219 20 6.08879 19.4135 4.4443 18.3147C2.79981 17.2159 1.51809 15.6541 0.761209 13.8268C0.00433284 11.9996 -0.1937 9.98891 0.192152 8.0491C0.578004 6.10929 1.53041 4.32746 2.92894 2.92894C4.32746 1.53041 6.10929 0.578004 8.0491 0.192152C9.98891 -0.1937 11.9996 0.00433284 13.8268 0.761209C15.6541 1.51809 17.2159 2.79981 18.3147 4.4443C19.4135 6.08879 20 8.02219 20 10C20 12.6522 18.9464 15.1957 17.0711 17.0711C15.1957 18.9464 12.6522 20 10 20ZM10 1.53847C8.32647 1.53847 6.69052 2.03473 5.29902 2.96449C3.90753 3.89426 2.823 5.21577 2.18256 6.76191C1.54213 8.30806 1.37456 10.0094 1.70105 11.6508C2.02754 13.2921 2.83343 14.7998 4.01679 15.9832C5.20016 17.1666 6.70786 17.9725 8.34924 18.299C9.99062 18.6254 11.6919 18.4579 13.2381 17.8174C14.7842 17.177 16.1057 16.0925 17.0355 14.701C17.9653 13.3095 18.4615 11.6735 18.4615 10C18.4615 7.75586 17.5701 5.60364 15.9832 4.01679C14.3964 2.42995 12.2441 1.53847 10 1.53847Z" fill="#282846"/>
<path d="M14.2307 15C14.1295 15.0006 14.0291 14.9812 13.9354 14.9429C13.8417 14.9046 13.7564 14.8482 13.6846 14.7769L9.4538 10.5461C9.38251 10.4743 9.32611 10.389 9.28783 10.2953C9.24954 10.2016 9.23014 10.1012 9.23073 9.99998V3.84613C9.23073 3.64212 9.31177 3.44647 9.45603 3.30221C9.60029 3.15795 9.79594 3.0769 9.99996 3.0769C10.204 3.0769 10.3996 3.15795 10.5439 3.30221C10.6881 3.44647 10.7692 3.64212 10.7692 3.84613V9.6846L14.7769 13.6846C14.849 13.7561 14.9062 13.8412 14.9453 13.9349C14.9843 14.0287 15.0044 14.1292 15.0044 14.2307C15.0044 14.3323 14.9843 14.4328 14.9453 14.5266C14.9062 14.6203 14.849 14.7054 14.7769 14.7769C14.705 14.8482 14.6198 14.9046 14.526 14.9429C14.4323 14.9812 14.332 15.0006 14.2307 15Z" fill="#282846"/>
</svg>
