<svg width="20" height="29" viewBox="0 0 20 29" fill="none" xmlns="http://www.w3.org/2000/svg">
<path d="M6.17996 25.983C3.45472 27.7544 2.0921 28.6401 1.04605 28.0725C0 27.5048 0 25.8796 0 22.6293L0 4C0 2.11438 0 1.17157 0.585786 0.585786C1.17157 0 2.11438 0 4 0H16C17.8856 0 18.8284 0 19.4142 0.585786C20 1.17157 20 2.11438 20 4V22.6293C20 25.8796 20 27.5048 18.954 28.0725C17.9079 28.6401 16.5453 27.7544 13.82 25.983L12.18 24.917C11.1219 24.2292 10.5929 23.8854 10 23.8854C9.40712 23.8854 8.8781 24.2292 7.82005 24.917L6.17996 25.983Z" fill="#F05454"/>
</svg>
