<svg width="1" height="1" viewBox="0 0 1 1" fill="none" xmlns="http://www.w3.org/2000/svg">
<path d="M0.31226 0.464262L0.312224 0.46428C0.312188 0.464318 0.312188 0.464355 0.312188 0.464355C0.309732 0.466943 0.307886 0.470072 0.30638 0.473405C0.305968 0.474243 0.305681 0.475007 0.305358 0.475882C0.305036 0.476738 0.304588 0.477521 0.304337 0.478433L0.232492 0.754524C0.22966 0.765473 0.232671 0.777149 0.240361 0.785175C0.246169 0.79119 0.253949 0.794449 0.26189 0.794449C0.264543 0.794449 0.267249 0.794095 0.26983 0.793332L0.525374 0.721581C0.527059 0.721879 0.528672 0.722605 0.530375 0.722605C0.53819 0.722605 0.545988 0.719514 0.551939 0.713332L0.965763 0.283386C0.987811 0.260462 1 0.229978 1 0.197557C1 0.165136 0.987811 0.134651 0.965763 0.111728L0.891301 0.0343717C0.847187 -0.0114945 0.770126 -0.01142 0.726083 0.0343717L0.31226 0.464262ZM0.769212 0.0791204C0.790256 0.0572023 0.827111 0.0572209 0.848227 0.0791391L0.922688 0.156476C0.933264 0.167445 0.939072 0.182026 0.939072 0.197557C0.939072 0.213087 0.933264 0.22765 0.922688 0.238637L0.900282 0.261914L0.746769 0.102454L0.769212 0.0791204ZM0.703677 0.147221L0.857189 0.306682L0.530411 0.64618L0.376863 0.486701L0.703677 0.147221ZM0.358919 0.557558L0.468927 0.67186L0.305179 0.717875L0.349437 0.547744L0.358919 0.557558Z" fill="#282846"/>
<path d="M0.742686 0.310877L0.699585 0.266113L0.508384 0.464802L0.551486 0.509565L0.742686 0.310877Z" fill="#282846"/>
<path d="M0.0304551 1.00001H0.850359C0.914818 1.00001 0.967196 0.945537 0.967196 0.87859V0.449948H0.906268V0.878609C0.906268 0.910658 0.881208 0.936691 0.850359 0.936691H0.0609461V0.0967623H0.580995V0.0334473H0.0304551C0.0136233 0.0334473 0 0.0476187 0 0.0651048V0.96833C0 0.985816 0.0136053 1.00001 0.0304551 1.00001Z" fill="#282846"/>
</svg>
