<svg width="21" height="21" viewBox="0 0 21 21" fill="none" xmlns="http://www.w3.org/2000/svg">
<path d="M9.41659 12.2917L8.45825 11.3333L19.2083 0.625L20.1249 1.54166L9.41659 12.2917Z" fill="#282846"/>
<path d="M20.375 6.79167C20.375 7.18287 20.0579 7.5 19.6667 7.5V7.5C19.2755 7.5 18.9583 7.18287 18.9583 6.79167V2.79166C18.9583 2.23938 18.5106 1.79166 17.9583 1.79166H13.9583C13.5671 1.79166 13.25 1.47453 13.25 1.08333V1.08333C13.25 0.692131 13.5671 0.375 13.9583 0.375H19.375C19.9273 0.375 20.375 0.822715 20.375 1.375V6.79167Z" fill="#282846"/>
<path d="M16.7917 20.375H2.5C1.33334 20.375 0.375 19.4166 0.375 18.25V3.95832C0.375 2.79165 1.33334 1.83331 2.5 1.83331H10.375V3.24998H2.5C2.125 3.24998 1.79166 3.58332 1.79166 3.95832V18.25C1.79166 18.625 2.125 18.9583 2.5 18.9583H16.7917C17.1667 18.9583 17.5 18.625 17.5 18.25V10.375H18.9167V18.25C18.9583 19.4166 18 20.375 16.7917 20.375Z" fill="#282846"/>
</svg>
