<svg width="40" height="40" viewBox="0 0 40 40" fill="none" xmlns="http://www.w3.org/2000/svg">
<g clip-path="url(#clip0_454_2)">
<path d="M19.9 26.4C19.6 26.4 19.4 26.3 19.2 26.1L11.2 18.1C10.8 17.7 10.8 17.1 11.2 16.7C11.6 16.3 12.2 16.3 12.6 16.7L19.9 24L27.2 16.7C27.6 16.3 28.2 16.3 28.6 16.7C29 17.1 29 17.7 28.6 18.1L20.6 26.1C20.4 26.3 20.1 26.4 19.9 26.4Z" fill="#282846"/>
<path d="M19.9 40C8.90002 40 -0.0999756 31 -0.0999756 20C-0.0999756 9 8.90002 0 19.9 0C24.4 0 28.6 1.5 32.2 4.2C32.6 4.5 32.7 5.2 32.4 5.6C32 6 31.4 6.1 31 5.8C27.8 3.3 24 2 19.9 2C10 2 1.90002 10.1 1.90002 20C1.90002 29.9 10 38 19.9 38C29.8 38 37.9 29.9 37.9 20C37.9 16.8 37 13.6 35.4 10.8C35.1 10.3 35.3 9.7 35.7 9.4C36.2 9.1 36.8 9.3 37.1 9.7C38.9 12.8 39.9 16.3 39.9 19.9C39.9 31 31 40 19.9 40Z" fill="#282846"/>
</g>
<defs>
<clipPath id="clip0_454_2">
<rect width="40" height="40" fill="white"/>
</clipPath>
</defs>
</svg>
