<svg width="20" height="20" viewBox="0 0 20 20" fill="none" xmlns="http://www.w3.org/2000/svg">
<path fill-rule="evenodd" clip-rule="evenodd" d="M19.75 5C19.75 3.74 19.25 2.532 18.359 1.641C17.468 0.75 16.26 0.25 15 0.25H5C3.74 0.25 2.532 0.75 1.641 1.641C0.75 2.532 0.25 3.74 0.25 5V15C0.25 16.26 0.75 17.468 1.641 18.359C2.532 19.25 3.74 19.75 5 19.75H15C16.26 19.75 17.468 19.25 18.359 18.359C19.25 17.468 19.75 16.26 19.75 15V5ZM18.25 5V15C18.25 15.862 17.908 16.689 17.298 17.298C16.689 17.908 15.862 18.25 15 18.25H5C4.138 18.25 3.311 17.908 2.702 17.298C2.092 16.689 1.75 15.862 1.75 15V5C1.75 4.138 2.092 3.311 2.702 2.702C3.311 2.092 4.138 1.75 5 1.75H15C15.862 1.75 16.689 2.092 17.298 2.702C17.908 3.311 18.25 4.138 18.25 5Z" fill="#29A19C"/>
<path fill-rule="evenodd" clip-rule="evenodd" d="M9.25 9.25V6.5C9.25 6.086 9.586 5.75 10 5.75C10.414 5.75 10.75 6.086 10.75 6.5V9.25H13.5C13.914 9.25 14.25 9.586 14.25 10C14.25 10.414 13.914 10.75 13.5 10.75H10.75V13.5C10.75 13.914 10.414 14.25 10 14.25C9.586 14.25 9.25 13.914 9.25 13.5V10.75H6.5C6.086 10.75 5.75 10.414 5.75 10C5.75 9.586 6.086 9.25 6.5 9.25H9.25Z" fill="#29A19C"/>
</svg>
