<svg width="72" height="72" viewBox="0 0 72 72" fill="none" xmlns="http://www.w3.org/2000/svg">
<path d="M70.046 0H42.646C42.146 0 41.646 0.2 41.246 0.6L0.646021 41.1C-0.153979 41.9 -0.153979 43.2 0.646021 43.9L28.046 71.4C28.846 72.2 30.046 72.2 30.846 71.4L71.346 30.9C71.746 30.5 71.946 30 71.946 29.5V2C72.046 0.9 71.146 0 70.046 0ZM68.046 28.6L29.546 67.2L4.84602 42.6L43.446 4H68.046V28.6ZM54.046 9.9C49.646 9.9 46.046 13.5 46.046 17.9C46.046 22.3 49.646 25.9 54.046 25.9C58.446 25.9 62.046 22.3 62.046 17.9C62.046 13.5 58.446 9.9 54.046 9.9ZM56.846 20.8C55.346 22.3 52.646 22.3 51.146 20.8C49.546 19.2 49.546 16.7 51.146 15.1C52.746 13.5 55.246 13.5 56.846 15.1C58.446 16.7 58.446 19.2 56.846 20.8Z" fill="#0074CC"/>
</svg>
